<?xml version="1.0" encoding="UTF-8"?>
<svg width="800px" height="800px" viewBox="0 0 800 800" version="1.1" xmlns="http://www.w3.org/2000/svg">
    <g stroke="none" stroke-width="1" fill="none" fill-rule="evenodd">
        <g stroke="#FFFFFF" stroke-width="2">
            <path d="M200,100 L200,300 L300,300 L300,400 L500,400 L500,200 L600,200 L600,100" opacity="0.4"></path>
            <path d="M100,200 L300,200 L300,400 L100,400 L100,600 L300,600 L300,700" opacity="0.4"></path>
            <path d="M400,100 L400,300 L600,300 L600,500 L400,500 L400,700" opacity="0.4"></path>
            <path d="M500,200 L700,200 L700,400 L500,400" opacity="0.4"></path>
            <path d="M700,500 L500,500 L500,600 L600,600 L600,700" opacity="0.4"></path>
            <circle cx="200" cy="100" r="6" fill="#FFFFFF" opacity="0.6"></circle>
            <circle cx="600" cy="100" r="6" fill="#FFFFFF" opacity="0.6"></circle>
            <circle cx="100" cy="200" r="6" fill="#FFFFFF" opacity="0.6"></circle>
            <circle cx="300" cy="200" r="6" fill="#FFFFFF" opacity="0.6"></circle>
            <circle cx="500" cy="200" r="6" fill="#FFFFFF" opacity="0.6"></circle>
            <circle cx="700" cy="200" r="6" fill="#FFFFFF" opacity="0.6"></circle>
            <circle cx="200" cy="300" r="6" fill="#FFFFFF" opacity="0.6"></circle>
            <circle cx="400" cy="300" r="6" fill="#FFFFFF" opacity="0.6"></circle>
            <circle cx="600" cy="300" r="6" fill="#FFFFFF" opacity="0.6"></circle>
            <circle cx="100" cy="400" r="6" fill="#FFFFFF" opacity="0.6"></circle>
            <circle cx="300" cy="400" r="6" fill="#FFFFFF" opacity="0.6"></circle>
            <circle cx="500" cy="400" r="6" fill="#FFFFFF" opacity="0.6"></circle>
            <circle cx="700" cy="400" r="6" fill="#FFFFFF" opacity="0.6"></circle>
            <circle cx="400" cy="500" r="6" fill="#FFFFFF" opacity="0.6"></circle>
            <circle cx="500" cy="500" r="6" fill="#FFFFFF" opacity="0.6"></circle>
            <circle cx="700" cy="500" r="6" fill="#FFFFFF" opacity="0.6"></circle>
            <circle cx="100" cy="600" r="6" fill="#FFFFFF" opacity="0.6"></circle>
            <circle cx="300" cy="600" r="6" fill="#FFFFFF" opacity="0.6"></circle>
            <circle cx="500" cy="600" r="6" fill="#FFFFFF" opacity="0.6"></circle>
            <circle cx="600" cy="600" r="6" fill="#FFFFFF" opacity="0.6"></circle>
            <circle cx="300" cy="700" r="6" fill="#FFFFFF" opacity="0.6"></circle>
            <circle cx="400" cy="700" r="6" fill="#FFFFFF" opacity="0.6"></circle>
            <circle cx="600" cy="700" r="6" fill="#FFFFFF" opacity="0.6"></circle>
        </g>
    </g>
</svg>