<?xml version="1.0" encoding="UTF-8"?>
<svg width="500px" height="400px" viewBox="0 0 500 400" version="1.1" xmlns="http://www.w3.org/2000/svg">
    <g stroke="none" stroke-width="1" fill="none" fill-rule="evenodd">
        <!-- Main Board -->
        <rect fill="#0D6EFD" opacity="0.9" x="50" y="50" width="400" height="300" rx="10"></rect>
        
        <!-- Circuit Traces -->
        <path d="M100,100 L100,200 L200,200 L200,300 L300,300 L300,150 L400,150" stroke="#FFFFFF" stroke-width="5" opacity="0.6"></path>
        <path d="M150,100 L150,150 L250,150 L250,250 L350,250" stroke="#FFFFFF" stroke-width="5" opacity="0.6"></path>
        <path d="M200,100 L200,125 L300,125 L300,200 L400,200" stroke="#FFFFFF" stroke-width="5" opacity="0.6"></path>
        <path d="M250,300 L250,275 L350,275 L350,100" stroke="#FFFFFF" stroke-width="5" opacity="0.6"></path>
        
        <!-- Component Elements -->
        <rect fill="#333333" x="120" y="170" width="30" height="60" rx="2"></rect>
        <rect fill="#333333" x="170" y="250" width="60" height="30" rx="2"></rect>
        <rect fill="#333333" x="270" y="170" width="30" height="60" rx="2"></rect>
        <rect fill="#333333" x="350" y="120" width="30" height="30" rx="2"></rect>
        
        <!-- Connection Points -->
        <circle fill="#FFD700" cx="100" cy="100" r="8"></circle>
        <circle fill="#FFD700" cx="150" cy="100" r="8"></circle>
        <circle fill="#FFD700" cx="200" cy="100" r="8"></circle>
        <circle fill="#FFD700" cx="350" cy="100" r="8"></circle>
        <circle fill="#FFD700" cx="400" cy="150" r="8"></circle>
        <circle fill="#FFD700" cx="400" cy="200" r="8"></circle>
        <circle fill="#FFD700" cx="350" cy="250" r="8"></circle>
        <circle fill="#FFD700" cx="200" cy="300" r="8"></circle>
        <circle fill="#FFD700" cx="250" cy="300" r="8"></circle>
        <circle fill="#FFD700" cx="300" cy="300" r="8"></circle>
        
        <!-- Microchip -->
        <rect fill="#1a1a1a" x="280" y="220" width="80" height="80" rx="4"></rect>
        <rect fill="#333333" x="290" y="230" width="60" height="60" rx="2"></rect>
        <circle fill="#FFD700" cx="300" cy="240" r="3"></circle>
        <circle fill="#FFD700" cx="310" cy="240" r="3"></circle>
        <circle fill="#FFD700" cx="320" cy="240" r="3"></circle>
        <circle fill="#FFD700" cx="330" cy="240" r="3"></circle>
        <circle fill="#FFD700" cx="340" cy="240" r="3"></circle>
        <circle fill="#FFD700" cx="300" cy="280" r="3"></circle>
        <circle fill="#FFD700" cx="310" cy="280" r="3"></circle>
        <circle fill="#FFD700" cx="320" cy="280" r="3"></circle>
        <circle fill="#FFD700" cx="330" cy="280" r="3"></circle>
        <circle fill="#FFD700" cx="340" cy="280" r="3"></circle>
        
        <!-- LED Indicators -->
        <circle fill="#FF0000" cx="120" cy="120" r="6"></circle>
        <circle fill="#00FF00" cx="140" cy="120" r="6"></circle>
        <circle fill="#0000FF" cx="160" cy="120" r="6"></circle>
    </g>
</svg>